<?xml version="1.0" standalone="no"?><!DOCTYPE svg PUBLIC "-//W3C//DTD SVG 1.1//EN" "http://www.w3.org/Graphics/SVG/1.1/DTD/svg11.dtd"><svg t="1741279109273" class="icon" viewBox="0 0 1024 1024" version="1.1" xmlns="http://www.w3.org/2000/svg" p-id="5069" xmlns:xlink="http://www.w3.org/1999/xlink" width="200" height="200"><path d="M508.6 48c255.9 0.1 462.5 207.4 462.4 464 0 253.8-208.1 461.1-462.8 461C253.6 972.9 45.6 765.4 46 511.6 46.3 254.8 252.8 47.8 508.6 48z" fill="#E8B759" p-id="5070"></path><path d="M703.7 700.5c5.3-10.5 7.3-21.6 6.8-34.3H550.4c1.1-17.7 8.3-32.9 22.3-43.4 11.9-8.9 24.7-17 38.2-23.1 14-6.4 29.3-10 44-14.8 9.5 2.3 19 4.7 28.6 6.8 5.3 1.2 11 1.1 16.1 2.9 22.9 8.2 44.9 7.8 65.4-6.1 17.2-11.7 17.2-32.3 0.3-44.4-17.3-12.3-37-15.2-56.7-9-12.5 3.9-24.5 6-37.5 6.8-17.1 1-27.7 12.5-28.3 28.1-20.3 3.8-40.5 7.6-60.8 11.5 1.7-3.5 4.1-5.1 6.4-6.9C606 560 624 546 640.9 530.8c10-9 9.8-16.6 2.5-28.1-3.4-5.3-6.5-10.8-10.3-15.8-5.7-7.5-6.7-15.1-1.9-23.4 13.9-4.4 27.8-9.2 41.9-13.1 2.8-0.8 6.9 0.5 9.4 2.2 12.9 8.5 26.6 13.7 42.3 13 31.5-1.4 52.4-27.1 43.9-55.2-2.9-9.3-3.8-17-0.5-26.9 5.7-17-2.6-32.1-14.3-44C715.5 300.3 668.8 292 617 305c-1.2 0.4-2.5 0.9-3.7 1.3l0.1-0.1c-8.8 3.7-15.8 0.6-22.8-5.1-6.5-5.3-13.9-9.5-21.1-13.8C533 265.6 494 257.2 452 266.2c-51.9 11.1-89 41.3-112.9 88.3-1.4 2.7-5.2 5.4-8.3 5.9-14.5 2.1-27.2 12.9-29.7 27.5-1 5.9-3.5 7-8.8 7.3-14.5 0.8-28.5 3.9-40.4 13-17.2 13.2-17.2 32.8 1 44.7 22.7 14.8 47.5 16.8 72.2 6.9 10.8-4.3 20.3-8.8 31.5-3 3.1 1.1 6.1 2.3 9.3 3.1 29.3 7.7 58.7 6.2 88 0.1 6.7 9 12.2 19.4 20.5 26.6 17.9 15.4 40.6 21.4 62.9 27.5 11.1 3.1 12.5 6.7 3.8 14-14 11.7-28.8 22.5-43.6 33.3-26.3 19.2-22.7 17.6-48.9 2.7 0.8-1.2 1.5-2.6 2.5-3.7 14.1-16.6 10.7-31.1-9.5-39.6-3-1.3-6.2-2.7-9.4-2.9-23.3-1.3-46-6.8-68.9-10.2-22.3-3.3-45.7-0.7-62.9 15.2-9.4 8.7-19.2 14.8-30.2 20.6-19 10.1-18.7 26.4 0.2 36.8 18.2 10 38.2 12.6 58.5 10.6 12.1-1.2 24.2-6.5 36.1-5.8 20.8 1.1 40.7-0.9 60.2-7.5 6.7 7.1 13.4 14.1 20.6 21.6-5.4 4.5-10.5 8.6-15.3 13-17.6 16.2-35.6 32-46.8 53.7h-79.9c3.6 13.1 6.5 23.8 9.5 34.5 6.9 11.4 12.1 24.5 21.1 34.1 47 50.3 107.8 66.2 174.2 66.7 9.3-0.4 18.6-0.6 27.8-1.4 39.5-3.3 76.8-14 110.5-35.1 25.2-15.6 46.1-35.4 56.8-64.2z" fill="#FFFFFF" p-id="5071"></path><path d="M616.9 305.1c51.8-13 98.4-4.7 136.9 34.5 11.7 11.9 20.1 27 14.3 44-3.3 9.9-2.4 17.5 0.5 26.9 8.6 28-12.3 53.7-43.9 55.2-15.7 0.7-29.4-4.5-42.3-13-2.6-1.7-6.7-3-9.4-2.2-14.1 4-27.9 8.7-41.9 13.1-22.3 2.3-44.6 2.1-66.6-3-22.9-5.4-43.3-15.2-57.1-33.3-9 7.6-17.5 14.8-26 22.1-9.2 3.6-18.4 7.2-27.7 10.9-29.3 6.2-58.7 7.6-88-0.1-3.1-0.8-6.2-2.1-9.3-3.1 1.4-1.1 2.7-2.4 4.2-3.2 21.8-12.5 43.7-24.8 65.5-37.4 53.7-31 107.3-62 160.9-93.2 8.9-5.2 17.4-11.2 26.1-16.8l-0.1 0.1c1.5-0.6 2.7-1 3.9-1.5z" fill="#458F81" p-id="5072"></path><path d="M613.3 306.4c-8.7 5.6-17.1 11.6-26.1 16.8-53.6 31.2-107.2 62.2-160.9 93.2-21.8 12.6-43.7 24.9-65.5 37.4-1.5 0.9-2.8 2.1-4.2 3.2-11.2-5.8-20.8-1.3-31.5 3-24.8 9.9-49.6 7.8-72.2-6.9-18.2-11.9-18.2-31.5-1-44.7 12-9.2 25.9-12.2 40.4-13 5.3-0.3 7.8-1.3 8.8-7.3 2.5-14.6 15.2-25.4 29.7-27.5 3-0.4 6.9-3.1 8.3-5.9 23.9-47.1 61-77.3 112.9-88.3 42-9 81-0.6 117.5 21.1 7.2 4.3 14.6 8.5 21.1 13.8 6.9 5.7 13.9 8.8 22.7 5.1z" fill="#51A799" p-id="5073"></path><path d="M564.6 460.6c22 5.1 44.2 5.2 66.6 3-4.8 8.2-3.8 15.8 1.9 23.3 3.8 5 7 10.5 10.3 15.8 7.2 11.5 7.5 19.1-2.5 28.1C624 546 606 560 588.4 574.4c-2.2 1.8-4.7 3.5-6.4 6.9 20.3-3.8 40.5-7.6 60.8-11.5 4 5 8 9.9 12 14.9-14.7 4.8-30 8.5-44 14.8-13.5 6.1-26.3 14.2-38.2 23.1-14 10.5-21.3 25.7-22.3 43.4l-41.8 0.6c-3.6-0.1-7.2-0.4-10.7-0.4l-114.1-0.3c11.2-21.7 29.2-37.5 46.8-53.7 4.8-4.4 9.9-8.4 15.3-13-7.1-7.5-13.8-14.6-20.6-21.6 7.8-4.5 15.5-9 23.3-13.5 26.2 15 22.5 16.5 48.9-2.7 14.8-10.8 29.6-21.6 43.6-33.3 8.8-7.3 7.4-10.9-3.8-14-22.3-6.1-45-12.1-62.9-27.5-8.3-7.2-13.8-17.6-20.5-26.6 9.2-3.6 18.4-7.2 27.6-10.9 10 8.5 19.3 18.1 30.3 25.1 16.3 10.5 35.1 15.6 54.4 17.7 9.5 1.1 12.3-2.9 8.5-11.5-3.1-6.5-6.6-13.1-10-19.8z" fill="#7A4932" p-id="5074"></path><path d="M508.6 801.4V700.6l0.1-0.1h195c-10.7 28.7-31.6 48.6-56.8 64.3-33.7 21.2-71 31.9-110.5 35.1-9.2 0.9-18.5 1-27.8 1.5z" fill="#EFF0F0" p-id="5075"></path><path d="M448.6 564.3c-7.8 4.5-15.5 9-23.3 13.5-19.6 6.6-39.5 8.5-60.2 7.5-11.9-0.6-24 4.6-36.1 5.8-20.4 2-40.3-0.6-58.5-10.6-18.9-10.3-19.2-26.7-0.2-36.8 10.9-5.8 20.8-11.9 30.2-20.6 17.3-15.9 40.7-18.6 62.9-15.2 23 3.4 45.6 8.9 68.9 10.2 3.2 0.2 6.4 1.6 9.4 2.9 20.2 8.5 23.6 23 9.5 39.6-1.1 1.1-1.8 2.4-2.6 3.7zM654.9 584.8c-4-5-8-9.9-12-14.9 0.6-15.6 11.2-27 28.3-28.1 12.9-0.8 25-2.9 37.5-6.8 19.7-6.2 39.4-3.3 56.7 9 16.9 12.1 16.9 32.7-0.3 44.4-20.5 13.9-42.6 14.3-65.4 6.1-5.1-1.8-10.8-1.7-16.1-2.9-9.7-2.1-19.2-4.5-28.7-6.8z" fill="#458F81" p-id="5076"></path><path d="M508.6 700.6H313.3c-2.9-10.7-5.9-21.4-9.5-34.5h79.9l114.1 0.3c3.6 0 7.2 0.3 10.7 0.4 0.1 11.2 0.1 22.5 0.1 33.8z" fill="#EFF0F0" p-id="5077"></path><path d="M508.6 700.5c0-11.2-0.1-22.5-0.1-33.7l41.8-0.6h160.1c0.5 12.7-1.5 23.8-6.8 34.3h-195z" fill="#E1E1E2" p-id="5078"></path><path d="M616.9 305.1c-1.2 0.5-2.5 0.9-3.7 1.4 1.3-0.5 2.5-0.9 3.7-1.4z" fill="#51A799" p-id="5079"></path><path d="M564.6 460.6c3.3 6.7 6.9 13.3 10 20.1 3.9 8.6 1 12.6-8.5 11.5-19.3-2.2-38-7.2-54.4-17.7-10.9-7-20.2-16.7-30.3-25.1 8.5-7.2 17-14.5 26-22.1 13.9 18.1 34.3 27.9 57.2 33.3z" fill="#E5B657" p-id="5080"></path></svg>